<svg xmlns="http://www.w3.org/2000/svg" xmlns:xlink="http://www.w3.org/1999/xlink" fill="none" version="1.1" width="52" height="52" viewBox="0 0 52 52"><g><rect x="0" y="0" width="52" height="52" rx="12" fill="#254135" fill-opacity="1" style="mix-blend-mode:passthrough"/><g transform="matrix(-1,0,0,1,70,0)"><path d="M43.5727015,19.9150925C38.9181457,19.9150925,35.15009645,23.72756,35.15009645,28.421552C35.15009645,33.187536,38.9181449,37,43.5742664,37C48.230387,37,52,33.187536,52,28.493544999999997C51.924952000000005,23.727561,48.156902,19.9150929,43.5742664,19.9150929L43.5727015,19.9150925ZM47.861401,27.687215000000002L46.235353,29.301476L46.60434,31.646872C46.752875,32.453199,46.308838,32.747574,45.569299,32.381207L43.499217,31.2805L41.4306989,32.381205C40.7646465,32.747572000000005,40.3206096,32.453196,40.395658499999996,31.64687L40.7646465,29.301473L39.1385999,27.687215000000002C38.5475938,27.101666,38.7696118,26.588112000000002,39.5091505,26.514516L41.7996864,26.146549L42.8347282,24.0219345C43.2037153,23.2875977,43.7212362,23.2875977,44.0902243,24.0219345L45.125265,26.148149L47.415800000000004,26.514518000000002C48.228824,26.588112000000002,48.450842,27.173659999999998,47.859837,27.687215000000002L47.861401,27.687215000000002ZM51.405867,15.0019205839L46.235353,15.0019205839C45.966786,15.0067194616,45.729621,15.1823412,45.641221,15.44188222L44.0151749,18.6688006C44.0151749,18.6688006,47.414236,18.8879819,49.484317000000004,20.8686094L51.848338999999996,15.95383763C51.940859,15.85435939,51.993815999999995,15.72316229,51.996876,15.58586973C51.996164,15.2545771,51.727896,14.989486376,51.404303,15.00032072709L51.405867,15.0019205839ZM42.983260200000004,18.6688006L41.3572145,15.44188222C41.2692094,15.18342252,41.0336223,15.0080437958,40.7662091,15.0019205976L35.5925687,15.0019205976C35.26836324,14.9910675297,34.99982631954,15.2571483,35,15.58906955C35,15.73465687,35.075048335,15.80825049,35.14853311,15.95543772L37.5125542,20.8670096C39.509151,18.8895817,42.983260200000004,18.6704009,42.983260200000004,18.6704009L42.983260200000004,18.6688006Z" fill="#10B981" fill-opacity="1" style="mix-blend-mode:passthrough"/></g></g></svg>