<svg xmlns="http://www.w3.org/2000/svg" xmlns:xlink="http://www.w3.org/1999/xlink" fill="none" version="1.1" width="20" height="22" viewBox="0 0 20 22"><defs><clipPath id="master_svg0_2_19699"><rect x="0" y="0" width="20" height="22" rx="0"/></clipPath></defs><g clip-path="url(#master_svg0_2_19699)"><g transform="matrix(-1,0,0,1,38,0)"><path d="M27.5727015,4.9150925C22.9181457,4.9150925,19.15009645,8.72756,19.15009645,13.421552C19.15009645,18.187536,22.9181449,22,27.5742664,22C32.230387,22,36,18.187536,36,13.493545C35.924952000000005,8.727561,32.156902,4.9150929,27.5742664,4.9150929L27.5727015,4.9150925ZM31.861401,12.687215L30.235353,14.301476L30.60434,16.646872C30.752875,17.453199,30.308838,17.747574,29.569299,17.381207L27.499217,16.2805L25.4306989,17.381205C24.764646499999998,17.747572,24.3206096,17.453196,24.3956585,16.64687L24.764646499999998,14.301473L23.1385999,12.687215C22.5475938,12.101666,22.7696118,11.588112,23.5091505,11.514516L25.7996864,11.146549L26.8347282,9.0219345C27.2037153,8.2875977,27.7212362,8.2875977,28.0902243,9.0219345L29.125265,11.148149L31.4158,11.514518C32.228824,11.588112,32.450842,12.17366,31.859837,12.687215L31.861401,12.687215ZM35.405867,0.0019205839L30.235353,0.0019205839C29.966786,0.0067194616,29.729621,0.1823412,29.641221,0.44188222L28.015174899999998,3.6688006C28.015174899999998,3.6688006,31.414236000000002,3.8879819,33.484317000000004,5.8686094L35.848338999999996,0.95383763C35.940859,0.85435939,35.993815999999995,0.72316229,35.996876,0.58586973C35.996164,0.2545771,35.727896,-0.010513624,35.404303,0.00032072709L35.405867,0.0019205839ZM26.9832602,3.6688006L25.3572145,0.44188222C25.2692094,0.18342252,25.0336223,0.0080437958,24.7662091,0.0019205976L19.5925687,0.0019205976C19.26836324,-0.0089324703,18.99982631954,0.2571483,19,0.58906955C19,0.73465687,19.075048335,0.80825049,19.14853311,0.95543772L21.5125542,5.8670096C23.509151,3.8895817,26.9832602,3.6704009,26.9832602,3.6704009L26.9832602,3.6688006Z" fill="#10B981" fill-opacity="1" style="mix-blend-mode:passthrough"/></g></g></svg>