<svg xmlns="http://www.w3.org/2000/svg" xmlns:xlink="http://www.w3.org/1999/xlink" fill="none" version="1.1" width="18.45703125" height="19.9990234375" viewBox="0 0 18.45703125 19.9990234375"><g><g><path d="M2.8804255,7.4079888375Q3.4195025,14.1134934375,3.7352525,16.9642034375Q3.8971725,18.430373437500002,5.2941625000000005,18.4589734375Q9.0145225,18.5373734375,13.0943125,18.4638734375Q14.5565125,18.4372734375,14.7204125,16.9572534375Q15.0341125,14.1315734375,15.5761125,7.4089152375L15.5762125,7.4075006375Q15.5818125,7.3376674375,15.6003125,7.2700834375Q15.6188125,7.2024994375,15.6494125,7.1395054375Q15.6801125,7.0765104375,15.7219125,7.0202854375Q15.7637125,6.9640604375,15.8152125,6.9165494375Q15.8667125,6.8690394375,15.9261125,6.8318894375Q15.9855125,6.7947384374999995,16.0508125,6.7692334375Q16.1160125,6.7437274375000005,16.1849125,6.7307504375Q16.2537125,6.7177734375,16.323812500000003,6.7177734375Q16.3977125,6.7177734375,16.4701125,6.7321844375Q16.5426125,6.7465954375,16.6108125,6.7748634375Q16.679112500000002,6.8031324375,16.7405125,6.8441714375Q16.8019125,6.8852104375,16.8541125,6.9374434375Q16.906412500000002,6.9896764375,16.9474125,7.0510954375Q16.988412500000003,7.1125154375,17.0167125,7.1807604375Q17.0450125,7.2490064375,17.0594125,7.3214554375Q17.073812500000003,7.3939049375,17.073812500000003,7.4677734375Q17.073812500000003,7.4980506375,17.0714125,7.5282293375L17.071112499999998,7.5308949375Q16.5274125,14.274893437500001,16.211212500000002,17.122293437499998Q16.0676125,18.4202734375,15.2551125,19.1749734375Q14.4319125,19.9397734375,13.1213125,19.9636734375Q9.0124225,20.0376734375,5.2634625,19.9585734375Q3.9882425,19.9324734375,3.1773724999999997,19.1596734375Q2.3852265,18.4046734375,2.2443715,17.129343437499998Q1.9261485,14.2563034375,1.3852905,7.5286956375Q1.3909785000000001,7.5984854375,1.4094875,7.6660174375Q1.4279955,7.7335484375,1.4586845,7.7964864375Q1.4893745,7.8594244375,1.5311835,7.9155934375Q1.5729935,7.9717634375,1.6244775,8.0192224375Q1.6759625,8.0666814375,1.7353425,8.1037904375Q1.7947225,8.1408984375,1.8599445000000001,8.1663744375Q1.9251675,8.1918494375,1.9939795,8.2048114375Q2.0627909,8.2177734375,2.1328125,8.2177734375Q2.206681,8.2177734375,2.2791305,8.203362437500001Q2.3515795,8.1889514375,2.4198255,8.1606834375Q2.4880705,8.1324144375,2.5494905,8.0913754375Q2.6109095,8.0503364375,2.6631425,7.9981034375Q2.7153755,7.9458704375,2.7564145,7.8844514375Q2.7974535,7.8230314375,2.8257225,7.7547864375Q2.8539905,7.6865404375,2.8684015,7.6140914375Q2.8828125,7.5416419375,2.8828125,7.4677734375Q2.8828125,7.4378335375,2.8804255,7.4079888375ZM2.8804005,7.4076725375L2.8804255,7.4079888375Q1.3828125,7.4979168375,1.3828125,7.4677734375Q1.3828125,7.3939049375,1.3972235,7.3214554375Q1.4116345,7.2490064375,1.4399025,7.1807604375Q1.4681715,7.1125154375,1.5092105,7.0510954375Q1.5502495,6.9896764375,1.6024825,6.9374434375Q1.6547155,6.8852104375,1.7161345,6.8441714375Q1.7775545,6.8031324375,1.8457995,6.7748634375Q1.9140455,6.7465954375,1.9864945,6.7321844375Q2.058944,6.7177734375,2.1328125,6.7177734375Q2.2028861,6.7177734375,2.2717465,6.7307544375Q2.3406075,6.7437354375,2.4058715,6.7692474375Q2.4711365,6.7947594375,2.5305445,6.8319204375Q2.5899535,6.8690814375,2.6414505,6.9166034375Q2.6929465,6.9641264375,2.7347485000000002,7.0203664375Q2.7765505,7.0766064375,2.8072105,7.1396164375Q2.8378705,7.2026264375,2.8563285,7.2702254375Q2.8747854999999998,7.3378244375,2.8804005,7.4076725375L2.8804005,7.4076725375Z" fill-rule="evenodd" fill="#FA2256" fill-opacity="1"/></g><g><path d="M0.75,3.4892578125L17.708,3.4892578125Q17.7819,3.4892578125,17.8543,3.5036688125Q17.9268,3.5180798125,17.995,3.5463478125Q18.0633,3.5746168125,18.1247,3.6156558125Q18.1861,3.6566948125,18.2383,3.7089277125Q18.2906,3.7611607125,18.3316,3.8225801125Q18.3726,3.8839998125,18.4009,3.9522448125Q18.4292,4.0204908125,18.4436,4.0929398125Q18.458,4.1653888125,18.458,4.2392578125Q18.458,4.3131268125,18.4436,4.3855758125Q18.4292,4.4580248125,18.4009,4.5262708125Q18.3726,4.5945158125,18.3316,4.6559358125Q18.2906,4.7173548125,18.2383,4.7695878125Q18.1861,4.8218178125,18.1247,4.8628578125Q18.0633,4.9038978125,17.995,4.9321678124999995Q17.9268,4.9604378125,17.8543,4.9748478125Q17.7819,4.9892578125,17.708,4.9892578125L0.75,4.9892578125Q0.6761315,4.9892578125,0.603682,4.9748478125Q0.5312330000000001,4.9604378125,0.462987,4.9321678124999995Q0.394742,4.9038978125,0.333322,4.8628578125Q0.271903,4.8218178125,0.21967000000000003,4.7695878125Q0.16743699999999995,4.7173548125,0.126398,4.6559358125Q0.08535899999999996,4.5945158125,0.057089999999999974,4.5262708125Q0.028822000000000014,4.4580248125,0.014410999999999952,4.3855758125Q0,4.3131268125,0,4.2392578125Q0,4.1653888125,0.014410999999999952,4.0929398125Q0.028822000000000014,4.0204908125,0.057089999999999974,3.9522448125Q0.08535899999999996,3.8839998125,0.126398,3.8225801125Q0.16743699999999995,3.7611607125,0.21967000000000003,3.7089277125Q0.271903,3.6566948125,0.333322,3.6156558125Q0.394742,3.5746168125,0.462987,3.5463478125Q0.5312330000000001,3.5180798125,0.603682,3.5036688125Q0.6761315,3.4892578125,0.75,3.4892578125Z" fill-rule="evenodd" fill="#FA2256" fill-opacity="1"/></g><g><path d="M4.584133,3.28547Q4.335977,3.489,4.015625,3.489Q3.9417565,3.489,3.869307,3.50341Q3.796858,3.51782,3.728612,3.54609Q3.660367,3.57436,3.598947,3.6154Q3.537528,3.65644,3.485295,3.70867Q3.433062,3.7609,3.392023,3.82232Q3.350984,3.88374,3.322715,3.95199Q3.294447,4.02023,3.280036,4.09268Q3.265625,4.1651299999999996,3.265625,4.239Q3.265625,4.31287,3.280036,4.38532Q3.294447,4.45777,3.322715,4.526009999999999Q3.350984,4.59426,3.392023,4.65568Q3.433062,4.7171,3.485295,4.76933Q3.537528,4.82156,3.598947,4.8626Q3.660367,4.90364,3.728612,4.93191Q3.796858,4.96018,3.869307,4.97459Q3.9417565,4.989,4.015625,4.989L4.016620168,4.989Q4.872812,4.98868,5.5353650000000005,4.44528Q6.197875,3.90191,6.3660250000000005,3.06227L6.603415,1.87432Q6.652305,1.7129750000000001,6.787395,1.609467Q6.930265,1.5,7.110625000000001,1.5L11.343625,1.5Q11.523985,1.5,11.666855,1.609467Q11.801955,1.712976,11.850835,1.87433L12.088165,3.06197Q12.256375,3.90191,12.918885,4.44528Q13.581825,4.989,14.438625,4.989Q14.512525,4.989,14.584925,4.97459Q14.657425,4.96018,14.725625,4.93191Q14.793925,4.90364,14.855325,4.8626Q14.916725,4.82156,14.968925,4.76933Q15.021225,4.7171,15.062225,4.65568Q15.103225,4.59426,15.131525,4.526009999999999Q15.159825,4.45777,15.174225,4.38532Q15.188625,4.31287,15.188625,4.239Q15.188625,4.1651299999999996,15.174225,4.09268Q15.159825,4.02023,15.131525,3.95199Q15.103225,3.88374,15.062225,3.82232Q15.021225,3.7609,14.968925,3.70867Q14.916725,3.65644,14.855325,3.6154Q14.793925,3.57436,14.725625,3.54609Q14.657425,3.51782,14.584925,3.50341Q14.512525,3.489,14.438625,3.489Q14.118225,3.489,13.870115,3.28547Q13.621945,3.08193,13.559085,2.76803L13.316085,1.55203Q13.311375,1.528476,13.305175,1.505271Q13.126875,0.8384502,12.579145,0.418783Q12.032565,0,11.343625,0L7.110625000000001,0Q6.421685,0,5.875105,0.418783Q5.327375,0.8384510000000001,5.149075,1.505271Q5.142875,1.528475,5.138165,1.552029L4.895226,2.76773Q4.832304,3.08193,4.584133,3.28547Z" fill-rule="evenodd" fill="#FA2256" fill-opacity="1"/></g></g></svg>