<svg xmlns="http://www.w3.org/2000/svg" xmlns:xlink="http://www.w3.org/1999/xlink" fill="none" version="1.1" width="20" height="20" viewBox="0 0 20 20"><g><g style="opacity:0.4000000059604645;"><path d="M14.8843,3.11485C14.8843,3.11485,11.9413,3.11485,11.9413,3.11485C11.2081,3.11969,10.512,2.79355,10.0474,2.22751C10.0474,2.22751,9.0782,0.887624,9.0782,0.887624C8.62137,0.316613,7.9253,-0.0110553,7.19321,0.000284957C7.19321,0.000284957,5.11261,0.000284957,5.11261,0.000284957C1.37819,0.000284957,0.0000105022,2.19201,0.0000105022,5.91884C0.0000105022,5.91884,0.0000105022,9.94736,0.0000105022,9.94736C-0.00463617,10.3904,19.9956,10.3898,19.9969,9.94736C19.9969,9.94736,19.9969,8.77607,19.9969,8.77607C20.0147,5.04924,18.6721,3.11485,14.8843,3.11485Z" fill="#246CF9" fill-opacity="1"/></g><g><path d="M18.83210954911775,4.543461324615478C19.15210954911775,4.917541324615478,19.39930954911775,5.347851324615478,19.56120954911775,5.812351324615479C19.87980954911775,6.767041324615478,20.02730954911775,7.770291324615479,19.99690954911775,8.77607132461548L19.99690954911775,14.029091324615479C19.99560954911775,14.471591324615478,19.96300954911775,14.913391324615478,19.89910954911775,15.35129132461548C19.77750954911775,16.123991324615478,19.50570954911775,16.865491324615476,19.09890954911775,17.534091324615478C18.91190954911775,17.857091324615478,18.684909549117748,18.15519132461548,18.42310954911775,18.42149132461548C17.238309549117748,19.50889132461548,15.665009549117748,20.07489132461548,14.057409549117748,19.99199132461548L5.930619549117749,19.99199132461548C4.320499549117749,20.07429132461548,2.744619549117749,19.508491324615477,1.5560195491177489,18.42149132461548C1.297409549117749,18.154691324615477,1.073379549117749,17.85659132461548,0.889157549117749,17.534091324615478C0.484759549117749,16.86599132461548,0.21869854911774897,16.12379132461548,0.10670854911774898,15.35129132461548C0.035498049117748974,14.914091324615478,-0.00018408688225102516,14.471991324615479,0.000009549117748974822,14.029091324615479L0.000009549117748974822,8.77607132461548C-0.00016384188225102518,8.33735132461548,0.023581849117748976,7.898951324615479,0.07114224911774897,7.462811324615479C0.09781664911774897,7.258721324615479,0.16005654911774897,7.063501324615478,0.16005654911774897,6.868291324615479C0.25031554911774895,6.341961324615479,0.41496754911774897,5.831091324615478,0.649087549117749,5.350941324615478C1.342619549117749,3.8690833246154783,2.765259549117749,3.1148451246154787,5.094819549117749,3.1148451246154787L14.87540954911775,3.1148451246154787C16.18020954911775,3.0139332246154784,17.47530954911775,3.4067303246154785,18.50320954911775,4.2151413246154785C18.62150954911775,4.315521324615478,18.73160954911775,4.425321324615479,18.83210954911775,4.543461324615478ZM4.971449549117749,13.540791324615478L15.054409549117748,13.540791324615478C15.275209549117749,13.550391324615479,15.49070954911775,13.471291324615478,15.652809549117748,13.321291324615478C15.814809549117749,13.171191324615478,15.90990954911775,12.962651324615479,15.91680954911775,12.74215132461548C15.929309549117749,12.548341324615478,15.86550954911775,12.357321324615478,15.73900954911775,12.209751324615478C15.59350954911775,12.011441324615479,15.362909549117749,11.893091324615478,15.116609549117749,11.890311324615478L4.971449549117749,11.890311324615478C4.514759549117749,11.890311324615478,4.144539549117749,12.259771324615478,4.144539549117749,12.715531324615478C4.144539549117749,13.171291324615478,4.514759549117749,13.540791324615478,4.971449549117749,13.540791324615478Z" fill-rule="evenodd" fill="#246CF9" fill-opacity="1"/></g></g></svg>