<svg xmlns="http://www.w3.org/2000/svg" xmlns:xlink="http://www.w3.org/1999/xlink" fill="none" version="1.1" width="24" height="24" viewBox="0 0 24 24"><g><rect x="0" y="0" width="24" height="24" rx="0" fill="#000000" fill-opacity="0" style="mix-blend-mode:passthrough"/><g transform="matrix(1,0,0,-1,0,40)"><path d="M4,28Q4.03125,30.1875,5.0625,32Q6.125,33.8125,8,34.9375Q9.90625,36,12,36Q14.09375,36,16,34.9375Q17.875,33.8125,18.9375,32Q19.96875,30.1875,20,28Q19.96875,25.8125,18.9375,24Q17.875,22.1875,16,21.0625Q14.09375,20,12,20Q9.90625,20,8,21.0625Q6.125,22.1875,5.0625,24Q4.03125,25.8125,4,28ZM14,25Q14,25.625,13.65625,26.125Q13.3125,26.625,12.75,26.84375L12.75,33.25Q12.6875,33.9375,12,34Q11.3125,33.9375,11.25,33.25L11.25,26.84375Q10.6875,26.625,10.34375,26.125Q10,25.625,10,25Q10.03125,24.15625,10.59375,23.59375Q11.15625,23.03125,12,23Q12.84375,23.03125,13.40625,23.59375Q13.96875,24.15625,14,25ZM8.5,30.5Q8.9375,30.5,9.21875,30.78125Q9.5,31.0625,9.5,31.5Q9.5,31.9375,9.21875,32.21875Q8.9375,32.5,8.5,32.5Q8.0625,32.5,7.78125,32.21875Q7.5,31.9375,7.5,31.5Q7.5,31.0625,7.78125,30.78125Q8.0625,30.5,8.5,30.5ZM8,28Q8,28.4375,7.71875,28.71875Q7.4375,29,7,29Q6.5625,29,6.28125,28.71875Q6,28.4375,6,28Q6,27.5625,6.28125,27.28125Q6.5625,27,7,27Q7.4375,27,7.71875,27.28125Q8,27.5625,8,28ZM17,27Q17.4375,27,17.71875,27.28125Q18,27.5625,18,28Q18,28.4375,17.71875,28.71875Q17.4375,29,17,29Q16.5625,29,16.28125,28.71875Q16,28.4375,16,28Q16,27.5625,16.28125,27.28125Q16.5625,27,17,27ZM16.5,31.5Q16.5,31.9375,16.21875,32.21875Q15.9375,32.5,15.5,32.5Q15.0625,32.5,14.78125,32.21875Q14.5,31.9375,14.5,31.5Q14.5,31.0625,14.78125,30.78125Q15.0625,30.5,15.5,30.5Q15.9375,30.5,16.21875,30.78125Q16.5,31.0625,16.5,31.5Z" fill="#4B5563" fill-opacity="1" style="mix-blend-mode:passthrough"/></g></g></svg>