<svg xmlns="http://www.w3.org/2000/svg" xmlns:xlink="http://www.w3.org/1999/xlink" fill="none" version="1.1" width="24" height="32" viewBox="0 0 24 32"><defs><clipPath id="master_svg0_2_12871"><rect x="0" y="4" width="24" height="24" rx="0"/></clipPath></defs><g><rect x="0" y="0" width="24" height="32" rx="0" fill="#000000" fill-opacity="0" style="mix-blend-mode:passthrough"/><g clip-path="url(#master_svg0_2_12871)"><g transform="matrix(1,0,0,-1,0,54.03125)"><g><path d="M3,46.515625Q3,47.171875,2.578125,47.59375Q2.15625,48.015625,1.5,48.015625Q0.84375,48.015625,0.421875,47.59375Q0,47.171875,0,46.515625L0,30.765625Q0.046875,29.171875,1.078125,28.09375Q2.15625,27.0625,3.75,27.015625L22.5,27.015625Q23.15625,27.015625,23.578125,27.4375Q24,27.859375,24,28.515625Q24,29.171875,23.578125,29.59375Q23.15625,30.015625,22.5,30.015625L3.75,30.015625Q3.046875,30.0625,3,30.765625L3,46.515625ZM22.078125,42.4375Q22.5,42.90625,22.5,43.515625Q22.5,44.125,22.078125,44.59375Q21.609375,45.015625,21,45.015625Q20.390625,45.015625,19.921875,44.59375L15,39.625L12.328125,42.34375Q11.859375,42.765625,11.25,42.765625Q10.640625,42.765625,10.171875,42.34375L4.921875,37.09375Q4.5,36.625,4.5,36.015625Q4.5,35.40625,4.921875,34.9375Q5.390625,34.515625,6,34.515625Q6.609375,34.515625,7.078125,34.9375L11.25,39.15625L13.921875,36.4375Q14.390625,36.015625,15,36.015625Q15.609375,36.015625,16.078125,36.4375L22.078125,42.4375Z" fill="#10B981" fill-opacity="1" style="mix-blend-mode:passthrough"/></g></g></g></g></svg>