<svg xmlns="http://www.w3.org/2000/svg" xmlns:xlink="http://www.w3.org/1999/xlink" fill="none" version="1.1" width="24.501873016357422" height="24.49917984008789" viewBox="0 0 24.501873016357422 24.49917984008789"><g><path d="M1.0046196,14.54168C1.1693861,14.54114,1.3317208,14.581424,1.4771197,14.658931C2.8368695,15.315181,4.3278694,15.65643,5.8363695,15.654681C11.364621,15.654681,15.842872,11.157182,15.842872,5.6096821C15.846003,4.1690688,15.537982,2.7447698,14.939871,1.4341823C14.758561,1.0510281,14.837286,0.5952965,15.136627,0.29517066C15.435968,-0.0049551199,15.891491,-0.084872566,16.27512,0.095432483C21.222149,1.9224679,24.505878,6.6395555,24.501871,11.913181C24.501871,18.86418,18.887869,24.49918,11.964869,24.49918C6.4313688,24.49918,1.7378687,20.906429,0.07186947,15.917182C-0.19000582,15.256947,0.29609647,14.540537,1.0063694,14.539929L1.0046192,14.539929L1.0046196,14.54168Z" fill="#5A605E" fill-opacity="1" style="mix-blend-mode:passthrough"/></g></svg>