<svg xmlns="http://www.w3.org/2000/svg" xmlns:xlink="http://www.w3.org/1999/xlink" fill="none" version="1.1" width="20" height="20" viewBox="0 0 20 20"><g><path d="M15,10C15,10.3866,14.6866,10.7,14.3,10.7L10.716667,10.7L10.716667,14.266667C10.716667,14.655566,10.401402,14.970833,10.012502,14.970833C9.6236,14.970833,9.3083334,14.655566,9.3083334,14.266667L9.3083334,10.716667L5.6999998,10.716667C5.3110995,10.716667,4.9958334,10.401402,4.9958334,10.012502C4.9958334,9.6236,5.3110995,9.3083334,5.6999998,9.3083334L9.3000002,9.3083334L9.3000002,5.7250004C9.3000002,5.3360996,9.6152658,5.0208335,10.004167,5.0208335C10.393067,5.0208335,10.708334,5.3360996,10.708334,5.7250004L10.708334,9.3083334L14.291668,9.3083334C14.681514,9.3037472,15,9.6147404,15,10ZM10,0C4.4771523,0,0,4.4771523,0,10C0,15.522848,4.4771523,20,10,20C15.522848,20,20,15.522848,20,10C20,4.4771523,15.522848,0,10,0Z" fill="#10B981" fill-opacity="1" style="mix-blend-mode:passthrough"/></g></svg>