<svg xmlns="http://www.w3.org/2000/svg" xmlns:xlink="http://www.w3.org/1999/xlink" fill="none" version="1.1" width="52" height="52" viewBox="0 0 52 52"><g><rect x="0" y="0" width="52" height="52" rx="12" fill="#254135" fill-opacity="1" style="mix-blend-mode:passthrough"/><g><rect x="12" y="12" width="25" height="28" rx="0" fill="#000000" fill-opacity="0" style="mix-blend-mode:passthrough"/></g><g><path d="M30,26C30,26.3866,29.6866,26.7,29.3,26.7L25.716667,26.7L25.716667,30.266666999999998C25.716667,30.655566,25.401401999999997,30.970833,25.012501999999998,30.970833C24.6236,30.970833,24.308333400000002,30.655566,24.308333400000002,30.266666999999998L24.308333400000002,26.716667L20.6999998,26.716667C20.3110995,26.716667,19.995833400000002,26.401401999999997,19.995833400000002,26.012501999999998C19.995833400000002,25.6236,20.3110995,25.308333400000002,20.6999998,25.308333400000002L24.3000002,25.308333400000002L24.3000002,21.7250004C24.3000002,21.3360996,24.6152658,21.020833500000002,25.004167000000002,21.020833500000002C25.393067000000002,21.020833500000002,25.708334,21.3360996,25.708334,21.7250004L25.708334,25.308333400000002L29.291668,25.308333400000002C29.681514,25.3037472,30,25.614740400000002,30,26ZM25,16C19.4771523,16,15,20.4771523,15,26C15,31.522848,19.4771523,36,25,36C30.522848,36,35,31.522848,35,26C35,20.4771523,30.522848,16,25,16Z" fill="#10B981" fill-opacity="1" style="mix-blend-mode:passthrough"/></g></g></svg>