<svg xmlns="http://www.w3.org/2000/svg" xmlns:xlink="http://www.w3.org/1999/xlink" fill="none" version="1.1" width="20" height="22" viewBox="0 0 20 22"><defs><clipPath id="master_svg0_16_00646"><rect x="0" y="0" width="20" height="22" rx="0"/></clipPath></defs><g clip-path="url(#master_svg0_16_00646)"><g transform="matrix(-1,0,0,-1,36,38)"><path d="M21.5002384,26.0000534C20.5691435,26.014811,19.6734008,25.643847,19.02537,24.9751081C18.35663161,24.3270774,17.985667266,23.431334,18.00042432436,22.5002389C18.00042432436,21.5332897,18.34240597,20.7083336,19.02537,20.0253698C19.6734008,19.35663077,20.5691435,18.985666804,21.5002384,19.00042386676C22.4671874,19.00042386676,23.2921433,19.34240559,23.9751072,20.0253698C24.6438446,20.6734008,25.0148087,21.569144,25.000052,22.5002389C25.000052,23.4671879,24.658070600000002,24.2921443,23.9751072,24.9751081C23.3270764,25.643846,22.4313335,26.0148101,21.5002384,26.0000534ZM21.5002384,24.0001597C21.9172161,24.0001597,22.2701974,23.8541675,22.5621819,23.5621824C22.854166499999998,23.2711987,23.0001593,22.9172165,23.0001593,22.5002389C23.0001593,22.0832613,22.854166499999998,21.7302794,22.5621819,21.4382954C22.2840047,21.151721000000002,21.8995576,20.9931633,21.5002384,21.0003183C21.0832608,21.0003183,20.7302792,21.1463106,20.4382951,21.4382954C20.151721000000002,21.7164717,19.9931633,22.1009195,20.0003183,22.5002389C20.0003183,22.9172165,20.1463106,23.2701979,20.4382951,23.5621824C20.7292795,23.8541675,21.0832608,24.0001597,21.5002384,24.0001597ZM30.499760000000002,34.999576C29.568666,35.014334000000005,28.672923,34.643369,28.024892,33.974629C27.3561544,33.326601,26.9851904,32.430858,26.9999466,31.499763C26.9999466,30.532813,27.3419285,29.707857,28.024892,29.024894C28.672923,28.3561544,29.568666,27.9851913,30.499760000000002,27.9999495C31.46671,27.9999495,32.291666,28.341929399999998,32.974629,29.024894C33.643371,29.672924000000002,34.014334000000005,30.568666999999998,33.999576,31.499763C33.999576,32.466712,33.657593,33.291667000000004,32.974629,33.974631C32.326598000000004,34.643371,31.430857,35.014334000000005,30.499760000000002,34.999576ZM30.499760000000002,32.999681C30.916739,32.999681,31.269721,32.85369,31.561706,32.561706C31.85369,32.27072,31.999681000000002,31.916739,31.999681000000002,31.499761C31.999681000000002,31.082782,31.85369,30.729799999999997,31.561706,30.437815999999998C31.283526000000002,30.151241,30.899077,29.992684,30.499760000000002,29.999843C30.082782,29.999843,29.729799999999997,30.145834999999998,29.437815999999998,30.437818999999998C29.151242,30.715994000000002,28.992685,31.100442,28.99984,31.499763C28.99984,31.91674,29.145833,32.269722,29.437815999999998,32.561707C29.728801,32.853691,30.082782,32.999682,30.499760000000002,32.999681ZM19.4003502,34.999578L18.00042432436,33.59965L32.599649,19.00042386676L33.999576,20.40035L19.4003502,34.999578Z" fill="#10B981" fill-opacity="1" style="mix-blend-mode:passthrough"/></g></g></svg>