<svg xmlns="http://www.w3.org/2000/svg" xmlns:xlink="http://www.w3.org/1999/xlink" fill="none" version="1.1" width="52" height="52" viewBox="0 0 52 52"><g><rect x="0" y="0" width="52" height="52" rx="12" fill="#254135" fill-opacity="1" style="mix-blend-mode:passthrough"/><g transform="matrix(-1,0,0,-1,68,68)"><path d="M37.5002384,41.0000534C36.5691435,41.014811,35.6734008,40.643847,35.02537,39.9751081C34.35663161,39.3270774,33.985667266,38.431334,34.00042432436,37.5002389C34.00042432436,36.5332897,34.34240597,35.7083336,35.02537,35.0253698C35.6734008,34.35663077,36.5691435,33.985666804,37.5002384,34.00042386676C38.4671874,34.00042386676,39.2921433,34.34240559,39.9751072,35.0253698C40.6438446,35.6734008,41.0148087,36.569144,41.000052,37.5002389C41.000052,38.4671879,40.6580706,39.292144300000004,39.9751072,39.9751081C39.3270764,40.643845999999996,38.4313335,41.0148101,37.5002384,41.0000534ZM37.5002384,39.0001597C37.9172161,39.0001597,38.2701974,38.8541675,38.5621819,38.5621824C38.8541665,38.2711987,39.0001593,37.9172165,39.0001593,37.5002389C39.0001593,37.083261300000004,38.8541665,36.7302794,38.5621819,36.4382954C38.2840047,36.151721,37.8995576,35.9931633,37.5002384,36.0003183C37.0832608,36.0003183,36.7302792,36.1463106,36.4382951,36.4382954C36.151721,36.7164717,35.9931633,37.1009195,36.0003183,37.5002389C36.0003183,37.9172165,36.1463106,38.2701979,36.4382951,38.5621824C36.7292795,38.8541675,37.0832608,39.0001597,37.5002384,39.0001597ZM46.49976,49.999576C45.568666,50.014334000000005,44.672923,49.643369,44.024892,48.974629C43.3561544,48.326601,42.9851904,47.430858,42.9999466,46.499763C42.9999466,45.532813000000004,43.3419285,44.707857000000004,44.024892,44.024894C44.672923,43.3561544,45.568666,42.9851913,46.49976,42.9999495C47.46671,42.9999495,48.291666,43.3419294,48.974629,44.024894C49.643371,44.672924,50.014334000000005,45.568667,49.999576,46.499763C49.999576,47.466712,49.657593,48.291667000000004,48.974629,48.974631C48.326598000000004,49.643371,47.430857,50.014334000000005,46.49976,49.999576ZM46.49976,47.999681C46.916739,47.999681,47.269721000000004,47.85369,47.561706,47.561706C47.85369,47.27072,47.999681,46.916739,47.999681,46.499761C47.999681,46.082782,47.85369,45.7298,47.561706,45.437816C47.283526,45.151241,46.899077,44.992684,46.49976,44.999843C46.082782,44.999843,45.7298,45.145835,45.437816,45.437819C45.151241999999996,45.715994,44.992685,46.100442,44.99984,46.499763C44.99984,46.916740000000004,45.145832999999996,47.269722,45.437816,47.561707C45.728801000000004,47.853691,46.082782,47.999682,46.49976,47.999681ZM35.4003502,49.999578L34.00042432436,48.59965L48.599649,34.00042386676L49.999576,35.40035L35.4003502,49.999578Z" fill="#10B981" fill-opacity="1" style="mix-blend-mode:passthrough"/></g></g></svg>