<svg xmlns="http://www.w3.org/2000/svg" xmlns:xlink="http://www.w3.org/1999/xlink" fill="none" version="1.1" width="19.900035858154297" height="19.978599548339844" viewBox="0 0 19.900035858154297 19.978599548339844"><g><path d="M16.990038,2.9257314C15.130065,1.0493888,12.596328,-0.0042346879,9.9543295,0.000019242592C7.3121409,-0.0051927767,4.7780476,1.0485781,2.9186192,2.9257314C1.0437248,4.7972121,-0.006822756,7.3395066,0.000049923361,9.9885845C-0.0083384393,12.637541,1.0406597,15.180331,2.9143333,17.052864C4.773489,18.930424,7.3077598,19.984268,9.9500437,19.978577C12.594098,19.984022,15.129946,18.929134,16.990038,17.050009C20.870035,13.158582,20.870035,6.821444,16.990038,2.9257314ZM14.675754,13.590011C14.564221,13.795794,14.377353,13.950409,14.154326,14.021439C14.081073,14.043094,14.004996,14.053688,13.928612,14.052867C13.772849,14.050931,13.620255,14.008598,13.485755,13.93001L10.047187,11.842868C9.9329014,11.777154,9.7900438,11.700011,9.7143297,11.598582C9.2771873,11.344297,9.0571871,11.08144,9.0571871,10.815726L9.0571871,5.0485873C9.0571871,4.5343018,9.4714727,4.118588,9.9829006,4.118588C10.494617,4.1201596,10.908614,4.5354342,10.908614,5.0471587L10.908614,10.375727L14.258611,12.318583C14.734324,12.595725,14.921468,13.165725,14.677182,13.58858L14.675754,13.590011Z" fill="#10B981" fill-opacity="1" style="mix-blend-mode:passthrough"/></g></svg>