<svg xmlns="http://www.w3.org/2000/svg" xmlns:xlink="http://www.w3.org/1999/xlink" fill="none" version="1.1" width="52" height="52" viewBox="0 0 52 52"><defs><clipPath id="master_svg0_18_06402"><rect x="16" y="16" width="20" height="20" rx="0"/></clipPath></defs><g><rect x="0" y="0" width="52" height="52" rx="12" fill="#254135" fill-opacity="1" style="mix-blend-mode:passthrough"/><g clip-path="url(#master_svg0_18_06402)"><g><path d="M33.00712784375,18.9257314C31.147154843750002,17.0493888,28.61341784375,15.9957653121,25.97141934375,16.000019242592C23.32923074375,15.9948072233,20.79513744375,17.0485781,18.935709043750002,18.9257314C17.06081464375,20.7972121,16.01026708775,23.3395066,16.017139767111,25.9885845C16.00875140445,28.637541,17.05774954375,31.180331000000002,18.93142314375,33.052864C20.790578843749998,34.930424,23.32484964375,35.984268,25.967133543750002,35.978577C28.611187843750002,35.984021999999996,31.14703584375,34.929134000000005,33.00712784375,33.050009C36.88712484375,29.158582,36.88712484375,22.821444,33.00712784375,18.9257314ZM30.692843843749998,29.590011C30.58131084375,29.795794,30.39444284375,29.950409,30.171415843749998,30.021439C30.09816284375,30.043094,30.02208584375,30.053688,29.94570184375,30.052867C29.78993884375,30.050931,29.63734484375,30.008598,29.502844843749997,29.93001L26.06427684375,27.842868C25.94999124375,27.777154,25.80713364375,27.700011,25.73141954375,27.598582C25.29427714375,27.344296999999997,25.07427694375,27.08144,25.07427694375,26.815725999999998L25.07427694375,21.0485873C25.07427694375,20.5343018,25.48856254375,20.118588,25.99999044375,20.118588C26.511706843749998,20.1201596,26.92570384375,20.5354342,26.92570384375,21.0471587L26.92570384375,26.375726999999998L30.275700843750002,28.318583C30.75141384375,28.595725,30.93855784375,29.165725000000002,30.694271843750002,29.58858L30.692843843749998,29.590011Z" fill="#10B981" fill-opacity="1" style="mix-blend-mode:passthrough"/></g></g></g></svg>