<svg xmlns="http://www.w3.org/2000/svg" xmlns:xlink="http://www.w3.org/1999/xlink" fill="none" version="1.1" width="20" height="20" viewBox="0 0 20 20"><g><path d="M9.9994879,0C4.4769506,0,0,4.4772058,0,10.000341C0,15.522817,4.4769506,20,9.9994879,20C15.521547,20,20,15.522795,20,10.000342C20,4.4772058,15.521547,0,9.9994879,0ZM15.621667,7.7182326L9.3847446,14.057424C9.3837662,14.058424,9.3828554,14.059472,9.3818989,14.060472C9.3809423,14.061474,9.3798962,14.062385,9.3789177,14.063363L9.3622122,14.08034C9.2230587,14.221793,9.0386343,14.292645,8.8513899,14.293805C8.8500242,14.293828,8.8486824,14.293828,8.8473167,14.29385C8.8437204,14.29385,8.840147,14.293941,8.8365288,14.293896C8.6497383,14.295422,8.4647465,14.22762,8.3237038,14.088874L4.8607497,10.681839C4.5716314,10.397342,4.5765929,9.9234591,4.8718338,9.6233473C5.1672335,9.3232126,5.641048,9.3104668,5.930007,9.5949659L8.8296099,12.447754L14.534703,6.6489067C14.819339,6.3597879,15.293152,6.364841,15.593218,6.6600819C15.893396,6.9552994,15.906164,7.4290462,15.621667,7.7182326Z" fill="#10B981" fill-opacity="1" style="mix-blend-mode:passthrough"/></g></svg>