<svg xmlns="http://www.w3.org/2000/svg" xmlns:xlink="http://www.w3.org/1999/xlink" fill="none" version="1.1" width="52" height="52" viewBox="0 0 52 52"><g><rect x="0" y="0" width="52" height="52" rx="12" fill="#254135" fill-opacity="1" style="mix-blend-mode:passthrough"/><g><path d="M25.9994879,16C20.476950600000002,16,16,20.4772058,16,26.000341C16,31.522817,20.476950600000002,36,25.9994879,36C31.521546999999998,36,36,31.522795000000002,36,26.000342C36,20.4772058,31.521546999999998,16,25.9994879,16ZM31.621667000000002,23.7182326L25.384744599999998,30.057423999999997C25.3837662,30.058424000000002,25.3828554,30.059472,25.3818989,30.060472C25.3809423,30.061474,25.379896199999997,30.062385,25.378917700000002,30.063363000000003L25.362212200000002,30.08034C25.2230587,30.221792999999998,25.0386343,30.292645,24.8513899,30.293805C24.8500242,30.293827999999998,24.8486824,30.293827999999998,24.8473167,30.29385C24.843720400000002,30.29385,24.840147,30.293941,24.8365288,30.293896C24.6497383,30.295422000000002,24.4647465,30.22762,24.3237038,30.088874L20.8607497,26.681839C20.5716314,26.397342000000002,20.5765929,25.923459100000002,20.8718338,25.6233473C21.167233500000002,25.323212599999998,21.641047999999998,25.3104668,21.930007,25.5949659L24.8296099,28.447754L30.534703,22.6489067C30.819339,22.3597879,31.293152,22.364841,31.593218,22.6600819C31.893396,22.9552994,31.906164,23.429046200000002,31.621667000000002,23.7182326Z" fill="#10B981" fill-opacity="1" style="mix-blend-mode:passthrough"/></g></g></svg>