<svg xmlns="http://www.w3.org/2000/svg" xmlns:xlink="http://www.w3.org/1999/xlink" fill="none" version="1.1" width="28" height="28" viewBox="0 0 28 28"><defs><clipPath id="master_svg0_18_04578"><rect x="0" y="0" width="28" height="28" rx="0"/></clipPath></defs><g clip-path="url(#master_svg0_18_04578)"><g><path d="M14.606404,22.764824C15.102985,22.764824,15.506893,23.155092,15.518325,23.640816L15.518568,23.661991L15.518568,26.102837C15.518568,26.598322,15.110191,27.000002,14.606404,27.000002C14.109822,27.000002,13.705916,26.609735,13.694485,26.12401L13.694241,26.102837L13.694241,23.662022C13.694241,23.166506,14.102617,22.764824,14.606404,22.764824ZM7.9253254,19.96339C8.2743196,20.308182,8.2793059,20.864101,7.9402547,21.214899L7.9253254,21.230038L6.1811481,22.953064C5.8270764,23.302811,5.2530217,23.302811,4.8989503,22.953064C4.5499566,22.608273,4.5449705,22.052353,4.884021499999999,21.701555L4.8989503,21.686415L6.6431284,19.96339C6.9972,19.613644,7.5712547,19.613644,7.9253254,19.96339ZM22.675978,19.948641L22.691303,19.96339L24.43548,21.686415C24.78952,22.036192,24.78952,22.603287,24.43548,22.953064C24.086454,23.297825,23.52371,23.302752,23.168606,22.967812L23.153282,22.953064L21.409103,21.230038C21.055063,20.88026,21.055063,20.313168,21.409103,19.96339C21.758129,19.618629,22.320873,19.613703,22.675978,19.948641ZM14.606404,5.5838246C18.972443,5.5838246,22.51182,9.0802794,22.51182,13.393371C22.51182,17.706461,18.972443,21.202917,14.606404,21.202917C10.2403669,21.202917,6.7009897,17.706461,6.7009897,13.393371C6.7009897,9.0802794,10.2403669,5.5838246,14.606404,5.5838246ZM4.3789568,12.387141C4.8805249,12.387141,5.287137,12.790565,5.287137,13.288242C5.287137,13.778801,4.8920789,14.17781,4.400392500000001,14.189103L4.3789568,14.189343L1.90818012,14.189343C1.40661192,14.189343,1,13.785919,1,13.288242C1,12.797683,1.39505798,12.398674,1.88674426,12.387382L1.90818012,12.387141L4.3789568,12.387141ZM27.091822,12.387141C27.593391,12.387141,28.000002,12.790565,28.000002,13.288242C28.000002,13.778801,27.604944,14.17781,27.113258,14.189103L27.091822,14.189343L24.621044,14.189343C24.119476,14.189343,23.712866,13.785919,23.712866,13.288242C23.712866,12.797683,24.107924,12.398674,24.599607,12.387382L24.621044,12.387141L27.091822,12.387141ZM6.1658545,3.6987808L6.1811786,3.7135286L7.9253569,5.4365549C8.2793975,5.7863321,8.2793975,6.3534255,7.9253569,6.7032027C7.5763326,7.0479646,7.0135889,7.0528903,6.6584835,6.7179508L6.6431594,6.7032027L4.8989813,4.9801769C4.5449402,4.6303992,4.5449402,4.0633063,4.8989813,3.7135286C5.2480059,3.368767,5.8107491,3.3638413,6.1658545,3.6987808ZM24.283484,3.7135286C24.632475,4.05832,24.637463,4.6142392,24.298412,4.9650378L24.283484,4.9801769L22.539307,6.7032027C22.185234,7.0529509,21.611179,7.0529509,21.257107,6.7032027C20.908115,6.3584113,20.903126,5.8024926,21.242178,5.4516931L21.257107,5.4365549L23.001286,3.7135286C23.355356,3.363781,23.929411,3.363781,24.283484,3.7135286ZM14.606404,0C15.103473,0,15.507379,0.39408168,15.515406,0.88325948L15.515527,0.89809769L15.515527,3.3474116C15.515527,3.8434381,15.10849,4.2455091,14.606404,4.2455091C14.109336,4.2455091,13.70543,3.8514276,13.697403,3.3622797L13.697282,3.3474116L13.697282,0.89809769C13.697282,0.40210155,14.10432,0,14.606404,0Z" fill="#8FB7A1" fill-opacity="1" style="mix-blend-mode:passthrough"/></g></g></svg>