<svg xmlns="http://www.w3.org/2000/svg" xmlns:xlink="http://www.w3.org/1999/xlink" fill="none" version="1.1" width="17.5" height="15" viewBox="0 0 17.5 15"><g transform="matrix(1,0,0,-1,0,30)"><path d="M0,28.75Q0,29.296875,0.3515625,29.648438Q0.703125,30,1.25,30L16.25,30Q16.796875,30,17.148438,29.648438Q17.5,29.296875,17.5,28.75Q17.5,28.203125,17.148438,27.851562Q16.796875,27.5,16.25,27.5L1.25,27.5Q0.703125,27.5,0.3515625,27.851562Q0,28.203125,0,28.75ZM0,22.5Q0,23.046875,0.3515625,23.3984375Q0.703125,23.75,1.25,23.75L16.25,23.75Q16.796875,23.75,17.148438,23.3984375Q17.5,23.046875,17.5,22.5Q17.5,21.953125,17.148438,21.6015625Q16.796875,21.25,16.25,21.25L1.25,21.25Q0.703125,21.25,0.3515625,21.6015625Q0,21.953125,0,22.5ZM17.5,16.25Q17.5,15.703125,17.148438,15.3515625Q16.796875,15,16.25,15L1.25,15Q0.703125,15,0.3515625,15.3515625Q0,15.703125,0,16.25Q0,16.796875,0.3515625,17.1484375Q0.703125,17.5,1.25,17.5L16.25,17.5Q16.796875,17.5,17.148438,17.1484375Q17.5,16.796875,17.5,16.25Z" fill="#6B7280" fill-opacity="1" style="mix-blend-mode:passthrough"/></g></svg>