<svg xmlns="http://www.w3.org/2000/svg" xmlns:xlink="http://www.w3.org/1999/xlink" fill="none" version="1.1" width="52" height="52" viewBox="0 0 52 52"><g><rect x="0" y="0" width="52" height="52" rx="12" fill="#254135" fill-opacity="1" style="mix-blend-mode:passthrough"/><g transform="matrix(-1,0,0,1,72,0)"><path d="M46,16C40.477078,16,36,20.47719,36,26C36,31.522809000000002,40.47719,36,46,36C51.52281,36,56,31.522809000000002,56,26C56,20.47719,51.522922,16,46,16ZM45.1663189,20.9999857C45.1663189,20.539815400000002,45.539073,20.1666412,45.9996643,20.1666412C46.460283000000004,20.1666412,46.832924,20.539815400000002,46.832924,20.9999857L46.832924,26.925715C46.832924,27.385887,46.460282,27.759059999999998,45.9996634,27.759059999999998C45.539072000000004,27.759059999999998,45.166317899999996,27.385887,45.166317899999996,26.925715L45.1663189,20.9999857ZM46,30.999985000000002C45.3529062,30.999985000000002,44.8283482,30.475538,44.8283482,29.828443999999998C44.8283482,29.181351,45.3529062,28.656792,46.000001,28.656792C46.647095,28.656792,47.171654000000004,29.181351,47.171654000000004,29.828446C47.171653,30.475428,46.647095,30.999985000000002,46,30.999985000000002Z" fill="#10B981" fill-opacity="1" style="mix-blend-mode:passthrough"/></g></g></svg>