<svg xmlns="http://www.w3.org/2000/svg" xmlns:xlink="http://www.w3.org/1999/xlink" fill="none" version="1.1" width="20" height="20" viewBox="0 0 20 20"><g transform="matrix(-1,0,0,1,40,0)"><path d="M30,0C24.477078,0,20,4.47719,20,10C20,15.522809,24.47719,20,30,20C35.52281,20,40,15.522809,40,10C40,4.47719,35.522922,0,30,0ZM29.1663189,4.9999857C29.1663189,4.5398154,29.539073000000002,4.1666412,29.9996643,4.1666412C30.460283,4.1666412,30.832924,4.5398154,30.832924,4.9999857L30.832924,10.925715C30.832924,11.385887,30.460282,11.75906,29.9996634,11.75906C29.539072,11.75906,29.1663179,11.385887,29.1663179,10.925715L29.1663189,4.9999857ZM30,14.999985C29.3529062,14.999985,28.8283482,14.475538,28.8283482,13.828444C28.8283482,13.181351,29.3529062,12.656792,30.000000999999997,12.656792C30.647095,12.656792,31.171654,13.181351,31.171654,13.828446C31.171653,14.475428,30.647095,14.999985,30,14.999985Z" fill="#10B981" fill-opacity="1" style="mix-blend-mode:passthrough"/></g></svg>